<svg width="120" height="120" viewBox="0 0 120 120" fill="none" xmlns="http://www.w3.org/2000/svg">
<g opacity="0.5" filter="url(#filter0_b_332_3860)">
<rect width="120" height="120" rx="60" fill="url(#paint0_linear_332_3860)"/>
<path fill-rule="evenodd" clip-rule="evenodd" d="M34.2547 41.087C40.7276 34.571 51.2223 34.571 57.6953 41.087L60 43.407L62.3047 41.087C68.7776 34.571 79.2724 34.571 85.7453 41.087C92.2182 47.603 92.2182 58.1675 85.7453 64.6835L60.5321 90.0644C60.2388 90.3596 59.7612 90.3596 59.4679 90.0644L34.2547 64.6835C27.7818 58.1675 27.7818 47.603 34.2547 41.087Z" fill="#FEFEFE"/>
<rect x="0.525" y="0.525" width="118.95" height="118.95" rx="59.475" stroke="url(#paint1_linear_332_3860)" stroke-width="1.05"/>
</g>
<defs>
<filter id="filter0_b_332_3860" x="-100" y="-100" width="320" height="320" filterUnits="userSpaceOnUse" color-interpolation-filters="sRGB">
<feFlood flood-opacity="0" result="BackgroundImageFix"/>
<feGaussianBlur in="BackgroundImageFix" stdDeviation="50"/>
<feComposite in2="SourceAlpha" operator="in" result="effect1_backgroundBlur_332_3860"/>
<feBlend mode="normal" in="SourceGraphic" in2="effect1_backgroundBlur_332_3860" result="shape"/>
</filter>
<linearGradient id="paint0_linear_332_3860" x1="0" y1="120" x2="120" y2="0" gradientUnits="userSpaceOnUse">
<stop stop-color="#00E183"/>
<stop offset="1" stop-color="#00FFE3" stop-opacity="0.5"/>
</linearGradient>
<linearGradient id="paint1_linear_332_3860" x1="-38.8235" y1="10.6098" x2="-25.9993" y2="129.267" gradientUnits="userSpaceOnUse">
<stop stop-color="white" stop-opacity="0.4"/>
<stop offset="0.368352" stop-color="white" stop-opacity="0.01"/>
<stop offset="0.574372" stop-color="white" stop-opacity="0.01"/>
<stop offset="1" stop-color="white" stop-opacity="0.1"/>
</linearGradient>
</defs>
</svg>
