<svg width="112" height="40" viewBox="0 0 112 40" fill="none" xmlns="http://www.w3.org/2000/svg">
<path fill-rule="evenodd" clip-rule="evenodd" d="M15.2484 17.8503C19.4474 16.3876 20.1622 12.5771 19.6261 9.07366C19.6261 8.94724 19.7333 8.85695 19.8406 8.89307C23.861 10.8796 28.3817 15.2137 28.3817 21.715C28.3817 26.6993 24.5578 31.1056 19.0007 31.1056C17.0178 31.1968 15.0613 30.6179 13.44 29.4604C11.8188 28.3029 10.6251 26.6327 10.0474 24.7134C9.46969 22.7941 9.54086 20.735 10.2497 18.8611C10.9585 16.9872 12.2646 15.4053 13.9618 14.3649C14.069 14.2927 14.212 14.3649 14.212 14.4914C14.2656 15.1595 14.4443 16.839 15.1769 17.8503H15.2484Z" fill="url(#paint0_linear_315_4495)"/>
<path fill-rule="evenodd" clip-rule="evenodd" d="M40.2107 27.1507L40.5145 26.7896L41.4615 29.8235L41.3364 29.9499C40.6217 30.6181 39.5496 30.9612 38.1737 30.9612H38.1201C36.8693 30.9612 35.8865 30.6 35.2075 29.9318C34.5285 29.2456 34.1712 28.2162 34.1712 26.916V18.6449H31.7589V15.304H34.1712V11.2769H37.8878V15.304H40.8361V18.6449H37.8699V26.1033C37.8699 26.4464 37.9593 27.548 38.9957 27.548C39.5317 27.548 40.032 27.3494 40.2107 27.1327V27.1507ZM42.1762 30.6181V15.3221H45.8929V30.6181H42.1762ZM44.0167 9.07367C44.4577 9.07368 44.8888 9.20563 45.2557 9.45289C45.6226 9.70014 45.9089 10.0516 46.0785 10.4631C46.248 10.8745 46.2933 11.3275 46.2086 11.7648C46.1238 12.2022 45.9129 12.6045 45.6023 12.9209C45.2917 13.2373 44.8954 13.4537 44.4633 13.5428C44.0312 13.632 43.5827 13.5898 43.1743 13.4217C42.7658 13.2536 42.4158 12.9671 42.1682 12.5983C41.9207 12.2294 41.7867 11.7948 41.7831 11.3491C41.7831 10.1211 42.8016 9.07367 44.0167 9.07367ZM55.8814 14.9428C59.0977 14.9428 60.8667 16.7126 60.8667 19.9452V30.6H57.1501V20.8481C57.0786 19.1145 56.2566 18.3199 54.5055 18.3199C52.9331 18.3199 51.6644 19.2951 51.0212 20.1258V30.6H47.3045V15.3401H51.0212V16.9655C52.0933 15.918 53.8086 14.979 55.8814 14.979V14.9428ZM73.2317 16.9113V9.72379H76.9484V30.6361H73.2317V29.0469C72.663 29.6532 71.9788 30.1369 71.2203 30.4689C70.4619 30.801 69.6448 30.9746 68.8182 30.9793C64.762 30.9793 62.046 27.7647 62.046 22.9791C62.046 18.1754 64.762 14.9609 68.8182 14.9609C69.6465 14.9647 70.4654 15.1397 71.2244 15.4751C71.9834 15.8105 72.6665 16.2993 73.2317 16.9113ZM73.2317 20.1438C72.8175 19.5986 72.2882 19.1536 71.6824 18.8412C71.0765 18.5288 70.4094 18.3569 69.7295 18.3379C67.4244 18.3379 65.8878 20.198 65.8878 22.9791C65.8878 25.7421 67.4244 27.6022 69.7295 27.6022C71.0696 27.6022 72.5348 26.8799 73.2317 25.8324V20.1438ZM85.6324 14.9609C90.0281 14.9609 93.0836 18.3921 93.0836 23.2681V24.2974H81.8443C82.2196 26.4464 83.8992 27.8189 86.1864 27.8189C87.6337 27.8189 89.224 27.1869 90.1353 26.2658L90.3855 26.0491L92.1544 28.6135L91.9758 28.776C90.3014 30.2764 88.1187 31.0657 85.8826 30.9793C81.2368 30.9793 77.9669 27.6745 77.9669 22.961C77.9307 21.9204 78.103 20.8831 78.4734 19.9115C78.8438 18.9398 79.4046 18.0538 80.1222 17.3066C80.8398 16.5595 81.6994 15.9665 82.6493 15.5634C83.5993 15.1603 84.62 14.9554 85.6503 14.9609H85.6324ZM81.8265 21.4622H89.4563C89.2419 19.1687 87.3657 18.1212 85.6324 18.1212C83.0236 18.1212 82.0409 20.1077 81.8265 21.4802V21.4622ZM102.071 14.9609H102.34V18.7533L102.018 18.6991C101.75 18.6449 101.41 18.6088 101.071 18.6088C99.8736 18.6088 98.2119 19.4576 97.5865 20.3606V30.6H93.8698V15.3221H97.6043V17.0196C98.8373 15.7194 100.463 14.9609 102.071 14.9609Z" fill="white" fill-opacity="0.96"/>
<defs>
<linearGradient id="paint0_linear_315_4495" x1="9.66064" y1="31.115" x2="31.5665" y2="12.6668" gradientUnits="userSpaceOnUse">
<stop stop-color="#FF2D82"/>
<stop offset="1" stop-color="#FF4F53"/>
</linearGradient>
</defs>
</svg>
