<svg width="44" height="44" viewBox="0 0 44 44" fill="none" xmlns="http://www.w3.org/2000/svg">
<g clip-path="url(#clip0_315_4519)">
<rect width="44" height="44" rx="22" fill="white" fill-opacity="0.07"/>
<rect width="44" height="44" rx="22" fill="#5E5E5E" fill-opacity="0.18" style="mix-blend-mode:color-dodge"/>
<path d="M22 13C18.809 13 16.2222 15.4944 16.2222 18.5714V22.8765C16.2222 24.105 15.7474 25.2894 14.8904 26.1984L14 27.1429H30L29.1096 26.1984C28.2526 25.2894 27.7778 24.105 27.7778 22.8765V18.5714C27.7778 15.4944 25.191 13 22 13Z" fill="white" fill-opacity="0.23" style="mix-blend-mode:lighten"/>
<path d="M22 13C18.809 13 16.2222 15.4944 16.2222 18.5714V22.8765C16.2222 24.105 15.7474 25.2894 14.8904 26.1984L14 27.1429H30L29.1096 26.1984C28.2526 25.2894 27.7778 24.105 27.7778 22.8765V18.5714C27.7778 15.4944 25.191 13 22 13Z" fill="#545454" style="mix-blend-mode:color-dodge"/>
<path d="M24.4637 29.4126C24.5977 29.1006 24.6667 28.7663 24.6667 28.4286H19.3333C19.3333 28.7663 19.4023 29.1006 19.5363 29.4126C19.6704 29.7246 19.8668 30.0081 20.1144 30.2468C20.362 30.4856 20.656 30.675 20.9795 30.8043C21.3031 30.9335 21.6498 31 22 31C22.3502 31 22.6969 30.9335 23.0205 30.8043C23.344 30.675 23.638 30.4856 23.8856 30.2468C24.1332 30.0081 24.3296 29.7246 24.4637 29.4126Z" fill="white" fill-opacity="0.23" style="mix-blend-mode:lighten"/>
<path d="M24.4637 29.4126C24.5977 29.1006 24.6667 28.7663 24.6667 28.4286H19.3333C19.3333 28.7663 19.4023 29.1006 19.5363 29.4126C19.6704 29.7246 19.8668 30.0081 20.1144 30.2468C20.362 30.4856 20.656 30.675 20.9795 30.8043C21.3031 30.9335 21.6498 31 22 31C22.3502 31 22.6969 30.9335 23.0205 30.8043C23.344 30.675 23.638 30.4856 23.8856 30.2468C24.1332 30.0081 24.3296 29.7246 24.4637 29.4126Z" fill="#545454" style="mix-blend-mode:color-dodge"/>
</g>
<defs>
<clipPath id="clip0_315_4519">
<rect width="44" height="44" rx="22" fill="white"/>
</clipPath>
</defs>
</svg>
