<svg width="44" height="44" viewBox="0 0 44 44" fill="none" xmlns="http://www.w3.org/2000/svg">
<g clip-path="url(#clip0_315_4537)">
<rect width="44" height="44" rx="22" fill="white" fill-opacity="0.07"/>
<rect width="44" height="44" rx="22" fill="#5E5E5E" fill-opacity="0.18" style="mix-blend-mode:color-dodge"/>
<path fill-rule="evenodd" clip-rule="evenodd" d="M30.0769 16.8462H26.6886C26.3085 15.7706 25.2827 15 24.077 15C22.8712 15 21.8455 15.7706 21.4653 16.8462H13.9231C13.4133 16.8462 13 17.2594 13 17.7692C13 18.279 13.4133 18.6923 13.9231 18.6923H21.4653C21.8455 19.7679 22.8712 20.5385 24.077 20.5385C25.2827 20.5385 26.3085 19.7679 26.6886 18.6923H30.0769C30.5867 18.6923 31 18.279 31 17.7692C31 17.2594 30.5867 16.8462 30.0769 16.8462ZM13.9231 25.6154C13.4133 25.6154 13 26.0287 13 26.5385C13 27.0483 13.4133 27.4615 13.9231 27.4615H16.3883C16.7685 28.5371 17.7942 29.3077 19 29.3077C20.2057 29.3077 21.2315 28.5371 21.6116 27.4615H30.0769C30.5867 27.4615 31 27.0483 31 26.5385C31 26.0287 30.5867 25.6154 30.0769 25.6154H21.6116C21.2315 24.5398 20.2057 23.7692 19 23.7692C17.7942 23.7692 16.7685 24.5398 16.3883 25.6154H13.9231Z" fill="white" fill-opacity="0.23" style="mix-blend-mode:lighten"/>
<path fill-rule="evenodd" clip-rule="evenodd" d="M30.0769 16.8462H26.6886C26.3085 15.7706 25.2827 15 24.077 15C22.8712 15 21.8455 15.7706 21.4653 16.8462H13.9231C13.4133 16.8462 13 17.2594 13 17.7692C13 18.279 13.4133 18.6923 13.9231 18.6923H21.4653C21.8455 19.7679 22.8712 20.5385 24.077 20.5385C25.2827 20.5385 26.3085 19.7679 26.6886 18.6923H30.0769C30.5867 18.6923 31 18.279 31 17.7692C31 17.2594 30.5867 16.8462 30.0769 16.8462ZM13.9231 25.6154C13.4133 25.6154 13 26.0287 13 26.5385C13 27.0483 13.4133 27.4615 13.9231 27.4615H16.3883C16.7685 28.5371 17.7942 29.3077 19 29.3077C20.2057 29.3077 21.2315 28.5371 21.6116 27.4615H30.0769C30.5867 27.4615 31 27.0483 31 26.5385C31 26.0287 30.5867 25.6154 30.0769 25.6154H21.6116C21.2315 24.5398 20.2057 23.7692 19 23.7692C17.7942 23.7692 16.7685 24.5398 16.3883 25.6154H13.9231Z" fill="#545454" style="mix-blend-mode:color-dodge"/>
</g>
<defs>
<clipPath id="clip0_315_4537">
<rect width="44" height="44" rx="22" fill="white"/>
</clipPath>
</defs>
</svg>
